<svg xmlns="http://www.w3.org/2000/svg" viewBox="0 0 900 420" width="900" height="420" font-family="Segoe UI, system-ui, sans-serif">
  <defs>
    <marker id="arr" viewBox="0 0 10 10" refX="8" refY="5" markerWidth="6" markerHeight="6" orient="auto-start-reverse">
      <path d="M2 1L8 5L2 9" fill="none" stroke="#64748b" stroke-width="1.5" stroke-linecap="round"/>
    </marker>
  </defs>
  <rect width="900" height="420" fill="#f8fafc" rx="12"/>
  <rect x="30" y="30" width="840" height="80" rx="10" fill="#ede9fe" stroke="#7c3aed" stroke-width="1.5"/>
  <text x="450" y="58" text-anchor="middle" font-size="15" font-weight="600" fill="#4c1d95">Frontend (React + TypeScript)</text>
  <rect x="70" y="70" width="220" height="28" rx="6" fill="#7c3aed" opacity="0.15"/>
  <text x="180" y="89" text-anchor="middle" font-size="12" fill="#4c1d95">SupportPage</text>
  <rect x="340" y="70" width="220" height="28" rx="6" fill="#7c3aed" opacity="0.15"/>
  <text x="450" y="89" text-anchor="middle" font-size="12" fill="#4c1d95">AgentDashboard</text>
  <rect x="610" y="70" width="220" height="28" rx="6" fill="#7c3aed" opacity="0.15"/>
  <text x="720" y="89" text-anchor="middle" font-size="12" fill="#4c1d95">SupervisorDashboard</text>
  <line x1="450" y1="110" x2="450" y2="148" stroke="#64748b" stroke-width="1.5" marker-end="url(#arr)"/>
  <text x="460" y="134" font-size="11" fill="#64748b">REST + WebSocket</text>
  <rect x="30" y="150" width="840" height="60" rx="10" fill="#dbeafe" stroke="#2563eb" stroke-width="1.5"/>
  <text x="450" y="174" text-anchor="middle" font-size="15" font-weight="600" fill="#1e3a8a">Express.js API</text>
  <text x="450" y="197" text-anchor="middle" font-size="12" fill="#1e40af">/api/knowledge  ·  /api/ticket  ·  /api/agent  ·  /api/analytics  ·  /api/sla</text>
  <line x1="200" y1="210" x2="200" y2="248" stroke="#64748b" stroke-width="1.5" marker-end="url(#arr)"/>
  <line x1="530" y1="210" x2="530" y2="248" stroke="#64748b" stroke-width="1.5" marker-end="url(#arr)"/>
  <line x1="760" y1="210" x2="760" y2="248" stroke="#64748b" stroke-width="1.5" marker-end="url(#arr)"/>
  <rect x="40" y="250" width="310" height="140" rx="10" fill="#dcfce7" stroke="#16a34a" stroke-width="1.5"/>
  <text x="195" y="274" text-anchor="middle" font-size="14" font-weight="600" fill="#14532d">MongoDB Atlas</text>
  <rect x="60" y="284" width="130" height="36" rx="7" fill="#16a34a" opacity="0.18"/>
  <text x="125" y="298" text-anchor="middle" font-size="11" font-weight="600" fill="#14532d">Atlas Search</text>
  <text x="125" y="312" text-anchor="middle" font-size="10" fill="#166534">Lucene · BK-tree fuzzy</text>
  <rect x="200" y="284" width="130" height="36" rx="7" fill="#16a34a" opacity="0.18"/>
  <text x="265" y="298" text-anchor="middle" font-size="11" font-weight="600" fill="#14532d">Vector Search</text>
  <text x="265" y="312" text-anchor="middle" font-size="10" fill="#166534">HNSW · 3072 dims</text>
  <rect x="60" y="330" width="270" height="46" rx="7" fill="#16a34a" opacity="0.1"/>
  <text x="195" y="352" text-anchor="middle" font-size="11" fill="#14532d">Collections: KnowledgeBase · Tags</text>
  <text x="195" y="367" text-anchor="middle" font-size="11" fill="#14532d">Tickets · Agents · Attachments</text>
  <rect x="380" y="250" width="260" height="140" rx="10" fill="#fef3c7" stroke="#d97706" stroke-width="1.5"/>
  <text x="510" y="274" text-anchor="middle" font-size="14" font-weight="600" fill="#78350f">Background Workers</text>
  <rect x="398" y="284" width="224" height="28" rx="6" fill="#d97706" opacity="0.18"/>
  <text x="510" y="303" text-anchor="middle" font-size="11" fill="#78350f">tagCleanupCron — Sunday 00:00</text>
  <rect x="398" y="320" width="224" height="28" rx="6" fill="#d97706" opacity="0.18"/>
  <text x="510" y="339" text-anchor="middle" font-size="11" fill="#78350f">slaWorker — SQS continuous</text>
  <rect x="398" y="356" width="224" height="28" rx="6" fill="#d97706" opacity="0.18"/>
  <text x="510" y="375" text-anchor="middle" font-size="11" fill="#78350f">forceLogoutWorker — SQS</text>
  <rect x="665" y="250" width="205" height="140" rx="10" fill="#fee2e2" stroke="#dc2626" stroke-width="1.5"/>
  <text x="767" y="274" text-anchor="middle" font-size="14" font-weight="600" fill="#7f1d1d">AWS Services</text>
  <rect x="682" y="284" width="172" height="28" rx="6" fill="#dc2626" opacity="0.15"/>
  <text x="768" y="303" text-anchor="middle" font-size="11" fill="#7f1d1d">S3 — File attachments</text>
  <rect x="682" y="320" width="172" height="28" rx="6" fill="#dc2626" opacity="0.15"/>
  <text x="768" y="339" text-anchor="middle" font-size="11" fill="#7f1d1d">SQS — Message queues</text>
  <rect x="682" y="356" width="172" height="28" rx="6" fill="#dc2626" opacity="0.15"/>
  <text x="768" y="375" text-anchor="middle" font-size="11" fill="#7f1d1d">EventBridge — SLA timers</text>
</svg>