<svg xmlns="http://www.w3.org/2000/svg" viewBox="0 0 860 560" width="860" height="560" font-family="Segoe UI, system-ui, sans-serif">
  <defs>
    <marker id="arr" viewBox="0 0 10 10" refX="8" refY="5" markerWidth="6" markerHeight="6" orient="auto-start-reverse">
      <path d="M2 1L8 5L2 9" fill="none" stroke="#64748b" stroke-width="1.5" stroke-linecap="round"/>
    </marker>
    <marker id="arr-r" viewBox="0 0 10 10" refX="8" refY="5" markerWidth="6" markerHeight="6" orient="auto-start-reverse">
      <path d="M2 1L8 5L2 9" fill="none" stroke="#dc2626" stroke-width="1.5" stroke-linecap="round"/>
    </marker>
    <marker id="arr-g" viewBox="0 0 10 10" refX="8" refY="5" markerWidth="6" markerHeight="6" orient="auto-start-reverse">
      <path d="M2 1L8 5L2 9" fill="none" stroke="#16a34a" stroke-width="1.5" stroke-linecap="round"/>
    </marker>
  </defs>
  <rect width="860" height="560" fill="#f8fafc" rx="12"/>
  <text x="430" y="36" text-anchor="middle" font-size="18" font-weight="700" fill="#0f172a">Ticket Lifecycle</text>
  <rect x="310" y="60" width="240" height="56" rx="9" fill="#f1f5f9" stroke="#94a3b8" stroke-width="1.5"/>
  <text x="430" y="82" text-anchor="middle" font-size="13" font-weight="600" fill="#334155">Ticket Created</text>
  <text x="430" y="101" text-anchor="middle" font-size="11" fill="#64748b">SLA deadline set · SLA schedules created</text>
  <line x1="430" y1="116" x2="430" y2="144" stroke="#64748b" stroke-width="1.5" marker-end="url(#arr)"/>
  <rect x="310" y="144" width="240" height="72" rx="9" fill="#dbeafe" stroke="#2563eb" stroke-width="1.5"/>
  <text x="430" y="166" text-anchor="middle" font-size="13" font-weight="600" fill="#1e3a8a">status: "pending"</text>
  <text x="430" y="184" text-anchor="middle" font-size="11" fill="#1d4ed8">Agent works ticket</text>
  <text x="430" y="202" text-anchor="middle" font-size="11" fill="#1d4ed8">Agent can view KB Suggestions at any time</text>
  <line x1="430" y1="216" x2="430" y2="244" stroke="#64748b" stroke-width="1.5" marker-end="url(#arr)"/>
  <text x="440" y="234" font-size="10" fill="#64748b">agent sends for approval</text>
  <rect x="310" y="244" width="240" height="56" rx="9" fill="#fef3c7" stroke="#d97706" stroke-width="1.5"/>
  <text x="430" y="266" text-anchor="middle" font-size="13" font-weight="600" fill="#78350f">status: "approval"</text>
  <text x="430" y="285" text-anchor="middle" font-size="11" fill="#92400e">Awaiting supervisor decision</text>
  <line x1="310" y1="272" x2="200" y2="272" stroke="#dc2626" stroke-width="1.5"/>
  <line x1="200" y1="272" x2="200" y2="180" stroke="#dc2626" stroke-width="1.5"/>
  <line x1="200" y1="180" x2="310" y2="180" stroke="#dc2626" stroke-width="1.5" marker-end="url(#arr-r)"/>
  <rect x="34" y="234" width="154" height="56" rx="8" fill="#fee2e2" stroke="#dc2626" stroke-width="1.3"/>
  <text x="111" y="256" text-anchor="middle" font-size="11" font-weight="600" fill="#7f1d1d">REJECT</text>
  <text x="111" y="273" text-anchor="middle" font-size="10" fill="#991b1b">back to pending</text>
  <text x="111" y="286" text-anchor="middle" font-size="10" fill="#991b1b">rejectionHistory[] updated</text>
  <line x1="550" y1="272" x2="660" y2="272" stroke="#16a34a" stroke-width="1.5"/>
  <line x1="660" y1="272" x2="660" y2="360" stroke="#16a34a" stroke-width="1.5" marker-end="url(#arr-g)"/>
  <rect x="672" y="234" width="162" height="56" rx="8" fill="#dcfce7" stroke="#16a34a" stroke-width="1.3"/>
  <text x="753" y="256" text-anchor="middle" font-size="11" font-weight="600" fill="#14532d">APPROVE</text>
  <text x="753" y="273" text-anchor="middle" font-size="10" fill="#166534">resolvedDate set</text>
  <text x="753" y="286" text-anchor="middle" font-size="10" fill="#166534">SLA schedules cancelled</text>
  <rect x="310" y="360" width="240" height="56" rx="9" fill="#dcfce7" stroke="#16a34a" stroke-width="1.5"/>
  <text x="430" y="382" text-anchor="middle" font-size="13" font-weight="600" fill="#14532d">status: "resolved"</text>
  <text x="430" y="401" text-anchor="middle" font-size="11" fill="#166534">Socket.io ticketResolved event emitted</text>
  <line x1="430" y1="416" x2="430" y2="444" stroke="#64748b" stroke-width="1.5" marker-end="url(#arr)"/>
  <text x="440" y="434" font-size="10" fill="#64748b">agent submits closing review</text>
  <rect x="310" y="444" width="240" height="56" rx="9" fill="#fae8ff" stroke="#9333ea" stroke-width="1.5"/>
  <text x="430" y="466" text-anchor="middle" font-size="13" font-weight="600" fill="#3b0764">Closing Review submitted</text>
  <text x="430" y="485" text-anchor="middle" font-size="11" fill="#6b21a8">reviewGiven = true · KB learns</text>
  <line x1="430" y1="500" x2="430" y2="528" stroke="#64748b" stroke-width="1.5" marker-end="url(#arr)"/>
  <rect x="290" y="528" width="280" height="22" rx="7" fill="#f1f5f9" stroke="#cbd5e1" stroke-width="1"/>
  <text x="430" y="543" text-anchor="middle" font-size="11" fill="#475569">Ticket closed · KB enriched · Feedback enabled</text>
</svg>