<svg xmlns="http://www.w3.org/2000/svg" viewBox="0 0 700 700" width="700" height="700" font-family="Segoe UI, system-ui, sans-serif">
  <defs>
    <marker id="arr" viewBox="0 0 10 10" refX="8" refY="5" markerWidth="6" markerHeight="6" orient="auto-start-reverse">
      <path d="M2 1L8 5L2 9" fill="none" stroke="#64748b" stroke-width="1.8" stroke-linecap="round"/>
    </marker>
  </defs>
  <rect width="700" height="700" fill="#f8fafc" rx="12"/>
  <text x="350" y="36" text-anchor="middle" font-size="18" font-weight="700" fill="#0f172a">The Self-Improvement Cycle</text>
  <line x1="480" y1="185" x2="535" y2="268" stroke="#94a3b8" stroke-width="1.8" marker-end="url(#arr)"/>
  <line x1="548" y1="336" x2="508" y2="490" stroke="#94a3b8" stroke-width="1.8" marker-end="url(#arr)"/>
  <line x1="449" y1="548" x2="250" y2="548" stroke="#94a3b8" stroke-width="1.8" marker-end="url(#arr)"/>
  <line x1="192" y1="490" x2="152" y2="336" stroke="#94a3b8" stroke-width="1.8" marker-end="url(#arr)"/>
  <line x1="213" y1="268" x2="268" y2="185" stroke="#94a3b8" stroke-width="1.8" marker-end="url(#arr)"/>
  <text x="350" y="358" text-anchor="middle" font-size="14" font-weight="600" fill="#94a3b8">self-improving</text>
  <text x="350" y="378" text-anchor="middle" font-size="14" font-weight="600" fill="#94a3b8">no curation</text>
  <text x="350" y="398" text-anchor="middle" font-size="14" font-weight="600" fill="#94a3b8">needed</text>
  <rect x="230" y="110" width="240" height="68" rx="10" fill="#dbeafe" stroke="#2563eb" stroke-width="1.8"/>
  <text x="350" y="136" text-anchor="middle" font-size="13" font-weight="600" fill="#1e3a8a">Agent resolves ticket</text>
  <text x="350" y="155" text-anchor="middle" font-size="11" fill="#1d4ed8">Closing review submitted</text>
  <text x="350" y="170" text-anchor="middle" font-size="11" fill="#1d4ed8">KB article created or enriched</text>
  <rect x="536" y="260" width="150" height="68" rx="10" fill="#f0fdf4" stroke="#16a34a" stroke-width="1.8"/>
  <text x="611" y="286" text-anchor="middle" font-size="13" font-weight="600" fill="#14532d">Article</text>
  <text x="611" y="305" text-anchor="middle" font-size="11" fill="#166534">surfaces in</text>
  <text x="611" y="320" text-anchor="middle" font-size="11" fill="#166534">future searches</text>
  <rect x="360" y="500" width="230" height="68" rx="10" fill="#fae8ff" stroke="#9333ea" stroke-width="1.8"/>
  <text x="475" y="526" text-anchor="middle" font-size="13" font-weight="600" fill="#3b0764">User votes on article</text>
  <text x="475" y="545" text-anchor="middle" font-size="11" fill="#6b21a8">successCount and</text>
  <text x="475" y="560" text-anchor="middle" font-size="11" fill="#6b21a8">usageCount update</text>
  <rect x="110" y="500" width="230" height="68" rx="10" fill="#fef3c7" stroke="#d97706" stroke-width="1.8"/>
  <text x="225" y="526" text-anchor="middle" font-size="13" font-weight="600" fill="#78350f">Confidence</text>
  <text x="225" y="545" text-anchor="middle" font-size="11" fill="#92400e">score recalculates</text>
  <text x="225" y="560" text-anchor="middle" font-size="11" fill="#92400e">on next search</text>
  <rect x="14" y="260" width="158" height="68" rx="10" fill="#fee2e2" stroke="#dc2626" stroke-width="1.8"/>
  <text x="93" y="283" text-anchor="middle" font-size="12" font-weight="600" fill="#7f1d1d">Article rises</text>
  <text x="93" y="301" text-anchor="middle" font-size="11" fill="#991b1b">or falls in</text>
  <text x="93" y="319" text-anchor="middle" font-size="11" fill="#991b1b">tier ranking</text>
</svg>